<svg xmlns="http://www.w3.org/2000/svg" width="127" height="127" viewBox="0 0 127 127"><g><g opacity=".4"><path fill="#a3bbc8" d="M63.5 0C98.57 0 127 28.43 127 63.5S98.57 127 63.5 127 0 98.57 0 63.5 28.43 0 63.5 0z"/></g><g><path fill="#a3bbc8" d="M63 14c27.062 0 49 21.938 49 49s-21.938 49-49 49-49-21.938-49-49 21.938-49 49-49z"/></g><g><path fill="#fff" d="M73.684 64.74L57.64 74.536c-.5.306-1.08.46-1.663.46-.48 0-.96-.105-1.399-.316-.972-.47-1.579-1.387-1.579-2.385V52.7c0-.999.607-1.917 1.58-2.386a3.242 3.242 0 0 1 3.061.143l16.044 9.798c.822.502 1.315 1.343 1.315 2.241 0 .9-.493 1.741-1.315 2.244z"/></g></g></svg>